<?xml version="1.0" encoding="utf-8" standalone="no"?>
<!DOCTYPE svg PUBLIC "-//W3C//DTD SVG 1.1//EN"
  "http://www.w3.org/Graphics/SVG/1.1/DTD/svg11.dtd">
<!-- Created with matplotlib (https://matplotlib.org/) -->
<svg height="345.6pt" version="1.1" viewBox="0 0 460.8 345.6" width="460.8pt" xmlns="http://www.w3.org/2000/svg" xmlns:xlink="http://www.w3.org/1999/xlink">
 <metadata>
  <rdf:RDF xmlns:cc="http://creativecommons.org/ns#" xmlns:dc="http://purl.org/dc/elements/1.1/" xmlns:rdf="http://www.w3.org/1999/02/22-rdf-syntax-ns#">
   <cc:Work>
    <dc:type rdf:resource="http://purl.org/dc/dcmitype/StillImage"/>
    <dc:date>2021-08-04T18:47:54.266946</dc:date>
    <dc:format>image/svg+xml</dc:format>
    <dc:creator>
     <cc:Agent>
      <dc:title>Matplotlib v3.3.2, https://matplotlib.org/</dc:title>
     </cc:Agent>
    </dc:creator>
   </cc:Work>
  </rdf:RDF>
 </metadata>
 <defs>
  <style type="text/css">*{stroke-linecap:butt;stroke-linejoin:round;}</style>
 </defs>
 <g id="figure_1">
  <g id="patch_1">
   <path d="M 0 345.6 
L 460.8 345.6 
L 460.8 0 
L 0 0 
z
" style="fill:#ffffff;"/>
  </g>
  <g id="axes_1">
   <g id="patch_2">
    <path d="M 56.18 303.64 
L 450 303.64 
L 450 10.8 
L 56.18 10.8 
z
" style="fill:#ffffff;"/>
   </g>
   <g id="matplotlib.axis_1">
    <g id="xtick_1">
     <g id="line2d_1">
      <path clip-path="url(#p5ed60ba7b3)" d="M 74.080909 303.64 
L 74.080909 10.8 
" style="fill:none;stroke:#b0b0b0;stroke-linecap:square;stroke-width:0.8;"/>
     </g>
     <g id="line2d_2">
      <defs>
       <path d="M 0 0 
L 0 3.5 
" id="m9fc5076400" style="stroke:#000000;stroke-width:0.8;"/>
      </defs>
      <g>
       <use style="stroke:#000000;stroke-width:0.8;" x="74.080909" xlink:href="#m9fc5076400" y="303.64"/>
      </g>
     </g>
     <g id="text_1">
      <!-- 0.0 -->
      <g transform="translate(66.129347 318.238437)scale(0.1 -0.1)">
       <defs>
        <path d="M 31.78125 66.40625 
Q 24.171875 66.40625 20.328125 58.90625 
Q 16.5 51.421875 16.5 36.375 
Q 16.5 21.390625 20.328125 13.890625 
Q 24.171875 6.390625 31.78125 6.390625 
Q 39.453125 6.390625 43.28125 13.890625 
Q 47.125 21.390625 47.125 36.375 
Q 47.125 51.421875 43.28125 58.90625 
Q 39.453125 66.40625 31.78125 66.40625 
z
M 31.78125 74.21875 
Q 44.046875 74.21875 50.515625 64.515625 
Q 56.984375 54.828125 56.984375 36.375 
Q 56.984375 17.96875 50.515625 8.265625 
Q 44.046875 -1.421875 31.78125 -1.421875 
Q 19.53125 -1.421875 13.0625 8.265625 
Q 6.59375 17.96875 6.59375 36.375 
Q 6.59375 54.828125 13.0625 64.515625 
Q 19.53125 74.21875 31.78125 74.21875 
z
" id="DejaVuSans-48"/>
        <path d="M 10.6875 12.40625 
L 21 12.40625 
L 21 0 
L 10.6875 0 
z
" id="DejaVuSans-46"/>
       </defs>
       <use xlink:href="#DejaVuSans-48"/>
       <use x="63.623047" xlink:href="#DejaVuSans-46"/>
       <use x="95.410156" xlink:href="#DejaVuSans-48"/>
      </g>
     </g>
    </g>
    <g id="xtick_2">
     <g id="line2d_3">
      <path clip-path="url(#p5ed60ba7b3)" d="M 146.407815 303.64 
L 146.407815 10.8 
" style="fill:none;stroke:#b0b0b0;stroke-linecap:square;stroke-width:0.8;"/>
     </g>
     <g id="line2d_4">
      <g>
       <use style="stroke:#000000;stroke-width:0.8;" x="146.407815" xlink:href="#m9fc5076400" y="303.64"/>
      </g>
     </g>
     <g id="text_2">
      <!-- 0.2 -->
      <g transform="translate(138.456252 318.238437)scale(0.1 -0.1)">
       <defs>
        <path d="M 19.1875 8.296875 
L 53.609375 8.296875 
L 53.609375 0 
L 7.328125 0 
L 7.328125 8.296875 
Q 12.9375 14.109375 22.625 23.890625 
Q 32.328125 33.6875 34.8125 36.53125 
Q 39.546875 41.84375 41.421875 45.53125 
Q 43.3125 49.21875 43.3125 52.78125 
Q 43.3125 58.59375 39.234375 62.25 
Q 35.15625 65.921875 28.609375 65.921875 
Q 23.96875 65.921875 18.8125 64.3125 
Q 13.671875 62.703125 7.8125 59.421875 
L 7.8125 69.390625 
Q 13.765625 71.78125 18.9375 73 
Q 24.125 74.21875 28.421875 74.21875 
Q 39.75 74.21875 46.484375 68.546875 
Q 53.21875 62.890625 53.21875 53.421875 
Q 53.21875 48.921875 51.53125 44.890625 
Q 49.859375 40.875 45.40625 35.40625 
Q 44.1875 33.984375 37.640625 27.21875 
Q 31.109375 20.453125 19.1875 8.296875 
z
" id="DejaVuSans-50"/>
       </defs>
       <use xlink:href="#DejaVuSans-48"/>
       <use x="63.623047" xlink:href="#DejaVuSans-46"/>
       <use x="95.410156" xlink:href="#DejaVuSans-50"/>
      </g>
     </g>
    </g>
    <g id="xtick_3">
     <g id="line2d_5">
      <path clip-path="url(#p5ed60ba7b3)" d="M 218.73472 303.64 
L 218.73472 10.8 
" style="fill:none;stroke:#b0b0b0;stroke-linecap:square;stroke-width:0.8;"/>
     </g>
     <g id="line2d_6">
      <g>
       <use style="stroke:#000000;stroke-width:0.8;" x="218.73472" xlink:href="#m9fc5076400" y="303.64"/>
      </g>
     </g>
     <g id="text_3">
      <!-- 0.4 -->
      <g transform="translate(210.783157 318.238437)scale(0.1 -0.1)">
       <defs>
        <path d="M 37.796875 64.3125 
L 12.890625 25.390625 
L 37.796875 25.390625 
z
M 35.203125 72.90625 
L 47.609375 72.90625 
L 47.609375 25.390625 
L 58.015625 25.390625 
L 58.015625 17.1875 
L 47.609375 17.1875 
L 47.609375 0 
L 37.796875 0 
L 37.796875 17.1875 
L 4.890625 17.1875 
L 4.890625 26.703125 
z
" id="DejaVuSans-52"/>
       </defs>
       <use xlink:href="#DejaVuSans-48"/>
       <use x="63.623047" xlink:href="#DejaVuSans-46"/>
       <use x="95.410156" xlink:href="#DejaVuSans-52"/>
      </g>
     </g>
    </g>
    <g id="xtick_4">
     <g id="line2d_7">
      <path clip-path="url(#p5ed60ba7b3)" d="M 291.061625 303.64 
L 291.061625 10.8 
" style="fill:none;stroke:#b0b0b0;stroke-linecap:square;stroke-width:0.8;"/>
     </g>
     <g id="line2d_8">
      <g>
       <use style="stroke:#000000;stroke-width:0.8;" x="291.061625" xlink:href="#m9fc5076400" y="303.64"/>
      </g>
     </g>
     <g id="text_4">
      <!-- 0.6 -->
      <g transform="translate(283.110063 318.238437)scale(0.1 -0.1)">
       <defs>
        <path d="M 33.015625 40.375 
Q 26.375 40.375 22.484375 35.828125 
Q 18.609375 31.296875 18.609375 23.390625 
Q 18.609375 15.53125 22.484375 10.953125 
Q 26.375 6.390625 33.015625 6.390625 
Q 39.65625 6.390625 43.53125 10.953125 
Q 47.40625 15.53125 47.40625 23.390625 
Q 47.40625 31.296875 43.53125 35.828125 
Q 39.65625 40.375 33.015625 40.375 
z
M 52.59375 71.296875 
L 52.59375 62.3125 
Q 48.875 64.0625 45.09375 64.984375 
Q 41.3125 65.921875 37.59375 65.921875 
Q 27.828125 65.921875 22.671875 59.328125 
Q 17.53125 52.734375 16.796875 39.40625 
Q 19.671875 43.65625 24.015625 45.921875 
Q 28.375 48.1875 33.59375 48.1875 
Q 44.578125 48.1875 50.953125 41.515625 
Q 57.328125 34.859375 57.328125 23.390625 
Q 57.328125 12.15625 50.6875 5.359375 
Q 44.046875 -1.421875 33.015625 -1.421875 
Q 20.359375 -1.421875 13.671875 8.265625 
Q 6.984375 17.96875 6.984375 36.375 
Q 6.984375 53.65625 15.1875 63.9375 
Q 23.390625 74.21875 37.203125 74.21875 
Q 40.921875 74.21875 44.703125 73.484375 
Q 48.484375 72.75 52.59375 71.296875 
z
" id="DejaVuSans-54"/>
       </defs>
       <use xlink:href="#DejaVuSans-48"/>
       <use x="63.623047" xlink:href="#DejaVuSans-46"/>
       <use x="95.410156" xlink:href="#DejaVuSans-54"/>
      </g>
     </g>
    </g>
    <g id="xtick_5">
     <g id="line2d_9">
      <path clip-path="url(#p5ed60ba7b3)" d="M 363.388531 303.64 
L 363.388531 10.8 
" style="fill:none;stroke:#b0b0b0;stroke-linecap:square;stroke-width:0.8;"/>
     </g>
     <g id="line2d_10">
      <g>
       <use style="stroke:#000000;stroke-width:0.8;" x="363.388531" xlink:href="#m9fc5076400" y="303.64"/>
      </g>
     </g>
     <g id="text_5">
      <!-- 0.8 -->
      <g transform="translate(355.436968 318.238437)scale(0.1 -0.1)">
       <defs>
        <path d="M 31.78125 34.625 
Q 24.75 34.625 20.71875 30.859375 
Q 16.703125 27.09375 16.703125 20.515625 
Q 16.703125 13.921875 20.71875 10.15625 
Q 24.75 6.390625 31.78125 6.390625 
Q 38.8125 6.390625 42.859375 10.171875 
Q 46.921875 13.96875 46.921875 20.515625 
Q 46.921875 27.09375 42.890625 30.859375 
Q 38.875 34.625 31.78125 34.625 
z
M 21.921875 38.8125 
Q 15.578125 40.375 12.03125 44.71875 
Q 8.5 49.078125 8.5 55.328125 
Q 8.5 64.0625 14.71875 69.140625 
Q 20.953125 74.21875 31.78125 74.21875 
Q 42.671875 74.21875 48.875 69.140625 
Q 55.078125 64.0625 55.078125 55.328125 
Q 55.078125 49.078125 51.53125 44.71875 
Q 48 40.375 41.703125 38.8125 
Q 48.828125 37.15625 52.796875 32.3125 
Q 56.78125 27.484375 56.78125 20.515625 
Q 56.78125 9.90625 50.3125 4.234375 
Q 43.84375 -1.421875 31.78125 -1.421875 
Q 19.734375 -1.421875 13.25 4.234375 
Q 6.78125 9.90625 6.78125 20.515625 
Q 6.78125 27.484375 10.78125 32.3125 
Q 14.796875 37.15625 21.921875 38.8125 
z
M 18.3125 54.390625 
Q 18.3125 48.734375 21.84375 45.5625 
Q 25.390625 42.390625 31.78125 42.390625 
Q 38.140625 42.390625 41.71875 45.5625 
Q 45.3125 48.734375 45.3125 54.390625 
Q 45.3125 60.0625 41.71875 63.234375 
Q 38.140625 66.40625 31.78125 66.40625 
Q 25.390625 66.40625 21.84375 63.234375 
Q 18.3125 60.0625 18.3125 54.390625 
z
" id="DejaVuSans-56"/>
       </defs>
       <use xlink:href="#DejaVuSans-48"/>
       <use x="63.623047" xlink:href="#DejaVuSans-46"/>
       <use x="95.410156" xlink:href="#DejaVuSans-56"/>
      </g>
     </g>
    </g>
    <g id="xtick_6">
     <g id="line2d_11">
      <path clip-path="url(#p5ed60ba7b3)" d="M 435.715436 303.64 
L 435.715436 10.8 
" style="fill:none;stroke:#b0b0b0;stroke-linecap:square;stroke-width:0.8;"/>
     </g>
     <g id="line2d_12">
      <g>
       <use style="stroke:#000000;stroke-width:0.8;" x="435.715436" xlink:href="#m9fc5076400" y="303.64"/>
      </g>
     </g>
     <g id="text_6">
      <!-- 1.0 -->
      <g transform="translate(427.763874 318.238437)scale(0.1 -0.1)">
       <defs>
        <path d="M 12.40625 8.296875 
L 28.515625 8.296875 
L 28.515625 63.921875 
L 10.984375 60.40625 
L 10.984375 69.390625 
L 28.421875 72.90625 
L 38.28125 72.90625 
L 38.28125 8.296875 
L 54.390625 8.296875 
L 54.390625 0 
L 12.40625 0 
z
" id="DejaVuSans-49"/>
       </defs>
       <use xlink:href="#DejaVuSans-49"/>
       <use x="63.623047" xlink:href="#DejaVuSans-46"/>
       <use x="95.410156" xlink:href="#DejaVuSans-48"/>
      </g>
     </g>
    </g>
    <g id="text_7">
     <!-- Zeit (s) -->
     <g transform="translate(235.143906 331.916562)scale(0.1 -0.1)">
      <defs>
       <path d="M 5.609375 72.90625 
L 62.890625 72.90625 
L 62.890625 65.375 
L 16.796875 8.296875 
L 64.015625 8.296875 
L 64.015625 0 
L 4.5 0 
L 4.5 7.515625 
L 50.59375 64.59375 
L 5.609375 64.59375 
z
" id="DejaVuSans-90"/>
       <path d="M 56.203125 29.59375 
L 56.203125 25.203125 
L 14.890625 25.203125 
Q 15.484375 15.921875 20.484375 11.0625 
Q 25.484375 6.203125 34.421875 6.203125 
Q 39.59375 6.203125 44.453125 7.46875 
Q 49.3125 8.734375 54.109375 11.28125 
L 54.109375 2.78125 
Q 49.265625 0.734375 44.1875 -0.34375 
Q 39.109375 -1.421875 33.890625 -1.421875 
Q 20.796875 -1.421875 13.15625 6.1875 
Q 5.515625 13.8125 5.515625 26.8125 
Q 5.515625 40.234375 12.765625 48.109375 
Q 20.015625 56 32.328125 56 
Q 43.359375 56 49.78125 48.890625 
Q 56.203125 41.796875 56.203125 29.59375 
z
M 47.21875 32.234375 
Q 47.125 39.59375 43.09375 43.984375 
Q 39.0625 48.390625 32.421875 48.390625 
Q 24.90625 48.390625 20.390625 44.140625 
Q 15.875 39.890625 15.1875 32.171875 
z
" id="DejaVuSans-101"/>
       <path d="M 9.421875 54.6875 
L 18.40625 54.6875 
L 18.40625 0 
L 9.421875 0 
z
M 9.421875 75.984375 
L 18.40625 75.984375 
L 18.40625 64.59375 
L 9.421875 64.59375 
z
" id="DejaVuSans-105"/>
       <path d="M 18.3125 70.21875 
L 18.3125 54.6875 
L 36.8125 54.6875 
L 36.8125 47.703125 
L 18.3125 47.703125 
L 18.3125 18.015625 
Q 18.3125 11.328125 20.140625 9.421875 
Q 21.96875 7.515625 27.59375 7.515625 
L 36.8125 7.515625 
L 36.8125 0 
L 27.59375 0 
Q 17.1875 0 13.234375 3.875 
Q 9.28125 7.765625 9.28125 18.015625 
L 9.28125 47.703125 
L 2.6875 47.703125 
L 2.6875 54.6875 
L 9.28125 54.6875 
L 9.28125 70.21875 
z
" id="DejaVuSans-116"/>
       <path id="DejaVuSans-32"/>
       <path d="M 31 75.875 
Q 24.46875 64.65625 21.28125 53.65625 
Q 18.109375 42.671875 18.109375 31.390625 
Q 18.109375 20.125 21.3125 9.0625 
Q 24.515625 -2 31 -13.1875 
L 23.1875 -13.1875 
Q 15.875 -1.703125 12.234375 9.375 
Q 8.59375 20.453125 8.59375 31.390625 
Q 8.59375 42.28125 12.203125 53.3125 
Q 15.828125 64.359375 23.1875 75.875 
z
" id="DejaVuSans-40"/>
       <path d="M 44.28125 53.078125 
L 44.28125 44.578125 
Q 40.484375 46.53125 36.375 47.5 
Q 32.28125 48.484375 27.875 48.484375 
Q 21.1875 48.484375 17.84375 46.4375 
Q 14.5 44.390625 14.5 40.28125 
Q 14.5 37.15625 16.890625 35.375 
Q 19.28125 33.59375 26.515625 31.984375 
L 29.59375 31.296875 
Q 39.15625 29.25 43.1875 25.515625 
Q 47.21875 21.78125 47.21875 15.09375 
Q 47.21875 7.46875 41.1875 3.015625 
Q 35.15625 -1.421875 24.609375 -1.421875 
Q 20.21875 -1.421875 15.453125 -0.5625 
Q 10.6875 0.296875 5.421875 2 
L 5.421875 11.28125 
Q 10.40625 8.6875 15.234375 7.390625 
Q 20.0625 6.109375 24.8125 6.109375 
Q 31.15625 6.109375 34.5625 8.28125 
Q 37.984375 10.453125 37.984375 14.40625 
Q 37.984375 18.0625 35.515625 20.015625 
Q 33.0625 21.96875 24.703125 23.78125 
L 21.578125 24.515625 
Q 13.234375 26.265625 9.515625 29.90625 
Q 5.8125 33.546875 5.8125 39.890625 
Q 5.8125 47.609375 11.28125 51.796875 
Q 16.75 56 26.8125 56 
Q 31.78125 56 36.171875 55.265625 
Q 40.578125 54.546875 44.28125 53.078125 
z
" id="DejaVuSans-115"/>
       <path d="M 8.015625 75.875 
L 15.828125 75.875 
Q 23.140625 64.359375 26.78125 53.3125 
Q 30.421875 42.28125 30.421875 31.390625 
Q 30.421875 20.453125 26.78125 9.375 
Q 23.140625 -1.703125 15.828125 -13.1875 
L 8.015625 -13.1875 
Q 14.5 -2 17.703125 9.0625 
Q 20.90625 20.125 20.90625 31.390625 
Q 20.90625 42.671875 17.703125 53.65625 
Q 14.5 64.65625 8.015625 75.875 
z
" id="DejaVuSans-41"/>
      </defs>
      <use xlink:href="#DejaVuSans-90"/>
      <use x="68.505859" xlink:href="#DejaVuSans-101"/>
      <use x="130.029297" xlink:href="#DejaVuSans-105"/>
      <use x="157.8125" xlink:href="#DejaVuSans-116"/>
      <use x="197.021484" xlink:href="#DejaVuSans-32"/>
      <use x="228.808594" xlink:href="#DejaVuSans-40"/>
      <use x="267.822266" xlink:href="#DejaVuSans-115"/>
      <use x="319.921875" xlink:href="#DejaVuSans-41"/>
     </g>
    </g>
   </g>
   <g id="matplotlib.axis_2">
    <g id="ytick_1">
     <g id="line2d_13">
      <path clip-path="url(#p5ed60ba7b3)" d="M 56.18 297.726053 
L 450 297.726053 
" style="fill:none;stroke:#b0b0b0;stroke-linecap:square;stroke-width:0.8;"/>
     </g>
     <g id="line2d_14">
      <defs>
       <path d="M 0 0 
L -3.5 0 
" id="mdb6e672221" style="stroke:#000000;stroke-width:0.8;"/>
      </defs>
      <g>
       <use style="stroke:#000000;stroke-width:0.8;" x="56.18" xlink:href="#mdb6e672221" y="297.726053"/>
      </g>
     </g>
     <g id="text_8">
      <!-- −1.5 -->
      <g transform="translate(24.897188 301.525272)scale(0.1 -0.1)">
       <defs>
        <path d="M 10.59375 35.5 
L 73.1875 35.5 
L 73.1875 27.203125 
L 10.59375 27.203125 
z
" id="DejaVuSans-8722"/>
        <path d="M 10.796875 72.90625 
L 49.515625 72.90625 
L 49.515625 64.59375 
L 19.828125 64.59375 
L 19.828125 46.734375 
Q 21.96875 47.46875 24.109375 47.828125 
Q 26.265625 48.1875 28.421875 48.1875 
Q 40.625 48.1875 47.75 41.5 
Q 54.890625 34.8125 54.890625 23.390625 
Q 54.890625 11.625 47.5625 5.09375 
Q 40.234375 -1.421875 26.90625 -1.421875 
Q 22.3125 -1.421875 17.546875 -0.640625 
Q 12.796875 0.140625 7.71875 1.703125 
L 7.71875 11.625 
Q 12.109375 9.234375 16.796875 8.0625 
Q 21.484375 6.890625 26.703125 6.890625 
Q 35.15625 6.890625 40.078125 11.328125 
Q 45.015625 15.765625 45.015625 23.390625 
Q 45.015625 31 40.078125 35.4375 
Q 35.15625 39.890625 26.703125 39.890625 
Q 22.75 39.890625 18.8125 39.015625 
Q 14.890625 38.140625 10.796875 36.28125 
z
" id="DejaVuSans-53"/>
       </defs>
       <use xlink:href="#DejaVuSans-8722"/>
       <use x="83.789062" xlink:href="#DejaVuSans-49"/>
       <use x="147.412109" xlink:href="#DejaVuSans-46"/>
       <use x="179.199219" xlink:href="#DejaVuSans-53"/>
      </g>
     </g>
    </g>
    <g id="ytick_2">
     <g id="line2d_15">
      <path clip-path="url(#p5ed60ba7b3)" d="M 56.18 252.870366 
L 450 252.870366 
" style="fill:none;stroke:#b0b0b0;stroke-linecap:square;stroke-width:0.8;"/>
     </g>
     <g id="line2d_16">
      <g>
       <use style="stroke:#000000;stroke-width:0.8;" x="56.18" xlink:href="#mdb6e672221" y="252.870366"/>
      </g>
     </g>
     <g id="text_9">
      <!-- −1.0 -->
      <g transform="translate(24.897188 256.669585)scale(0.1 -0.1)">
       <use xlink:href="#DejaVuSans-8722"/>
       <use x="83.789062" xlink:href="#DejaVuSans-49"/>
       <use x="147.412109" xlink:href="#DejaVuSans-46"/>
       <use x="179.199219" xlink:href="#DejaVuSans-48"/>
      </g>
     </g>
    </g>
    <g id="ytick_3">
     <g id="line2d_17">
      <path clip-path="url(#p5ed60ba7b3)" d="M 56.18 208.01468 
L 450 208.01468 
" style="fill:none;stroke:#b0b0b0;stroke-linecap:square;stroke-width:0.8;"/>
     </g>
     <g id="line2d_18">
      <g>
       <use style="stroke:#000000;stroke-width:0.8;" x="56.18" xlink:href="#mdb6e672221" y="208.01468"/>
      </g>
     </g>
     <g id="text_10">
      <!-- −0.5 -->
      <g transform="translate(24.897188 211.813899)scale(0.1 -0.1)">
       <use xlink:href="#DejaVuSans-8722"/>
       <use x="83.789062" xlink:href="#DejaVuSans-48"/>
       <use x="147.412109" xlink:href="#DejaVuSans-46"/>
       <use x="179.199219" xlink:href="#DejaVuSans-53"/>
      </g>
     </g>
    </g>
    <g id="ytick_4">
     <g id="line2d_19">
      <path clip-path="url(#p5ed60ba7b3)" d="M 56.18 163.158993 
L 450 163.158993 
" style="fill:none;stroke:#b0b0b0;stroke-linecap:square;stroke-width:0.8;"/>
     </g>
     <g id="line2d_20">
      <g>
       <use style="stroke:#000000;stroke-width:0.8;" x="56.18" xlink:href="#mdb6e672221" y="163.158993"/>
      </g>
     </g>
     <g id="text_11">
      <!-- 0.0 -->
      <g transform="translate(33.276875 166.958212)scale(0.1 -0.1)">
       <use xlink:href="#DejaVuSans-48"/>
       <use x="63.623047" xlink:href="#DejaVuSans-46"/>
       <use x="95.410156" xlink:href="#DejaVuSans-48"/>
      </g>
     </g>
    </g>
    <g id="ytick_5">
     <g id="line2d_21">
      <path clip-path="url(#p5ed60ba7b3)" d="M 56.18 118.303307 
L 450 118.303307 
" style="fill:none;stroke:#b0b0b0;stroke-linecap:square;stroke-width:0.8;"/>
     </g>
     <g id="line2d_22">
      <g>
       <use style="stroke:#000000;stroke-width:0.8;" x="56.18" xlink:href="#mdb6e672221" y="118.303307"/>
      </g>
     </g>
     <g id="text_12">
      <!-- 0.5 -->
      <g transform="translate(33.276875 122.102526)scale(0.1 -0.1)">
       <use xlink:href="#DejaVuSans-48"/>
       <use x="63.623047" xlink:href="#DejaVuSans-46"/>
       <use x="95.410156" xlink:href="#DejaVuSans-53"/>
      </g>
     </g>
    </g>
    <g id="ytick_6">
     <g id="line2d_23">
      <path clip-path="url(#p5ed60ba7b3)" d="M 56.18 73.44762 
L 450 73.44762 
" style="fill:none;stroke:#b0b0b0;stroke-linecap:square;stroke-width:0.8;"/>
     </g>
     <g id="line2d_24">
      <g>
       <use style="stroke:#000000;stroke-width:0.8;" x="56.18" xlink:href="#mdb6e672221" y="73.44762"/>
      </g>
     </g>
     <g id="text_13">
      <!-- 1.0 -->
      <g transform="translate(33.276875 77.246839)scale(0.1 -0.1)">
       <use xlink:href="#DejaVuSans-49"/>
       <use x="63.623047" xlink:href="#DejaVuSans-46"/>
       <use x="95.410156" xlink:href="#DejaVuSans-48"/>
      </g>
     </g>
    </g>
    <g id="ytick_7">
     <g id="line2d_25">
      <path clip-path="url(#p5ed60ba7b3)" d="M 56.18 28.591934 
L 450 28.591934 
" style="fill:none;stroke:#b0b0b0;stroke-linecap:square;stroke-width:0.8;"/>
     </g>
     <g id="line2d_26">
      <g>
       <use style="stroke:#000000;stroke-width:0.8;" x="56.18" xlink:href="#mdb6e672221" y="28.591934"/>
      </g>
     </g>
     <g id="text_14">
      <!-- 1.5 -->
      <g transform="translate(33.276875 32.391153)scale(0.1 -0.1)">
       <use xlink:href="#DejaVuSans-49"/>
       <use x="63.623047" xlink:href="#DejaVuSans-46"/>
       <use x="95.410156" xlink:href="#DejaVuSans-53"/>
      </g>
     </g>
    </g>
    <g id="text_15">
     <!-- Amplitude -->
     <g transform="translate(18.8175 182.842656)rotate(-90)scale(0.1 -0.1)">
      <defs>
       <path d="M 34.1875 63.1875 
L 20.796875 26.90625 
L 47.609375 26.90625 
z
M 28.609375 72.90625 
L 39.796875 72.90625 
L 67.578125 0 
L 57.328125 0 
L 50.6875 18.703125 
L 17.828125 18.703125 
L 11.1875 0 
L 0.78125 0 
z
" id="DejaVuSans-65"/>
       <path d="M 52 44.1875 
Q 55.375 50.25 60.0625 53.125 
Q 64.75 56 71.09375 56 
Q 79.640625 56 84.28125 50.015625 
Q 88.921875 44.046875 88.921875 33.015625 
L 88.921875 0 
L 79.890625 0 
L 79.890625 32.71875 
Q 79.890625 40.578125 77.09375 44.375 
Q 74.3125 48.1875 68.609375 48.1875 
Q 61.625 48.1875 57.5625 43.546875 
Q 53.515625 38.921875 53.515625 30.90625 
L 53.515625 0 
L 44.484375 0 
L 44.484375 32.71875 
Q 44.484375 40.625 41.703125 44.40625 
Q 38.921875 48.1875 33.109375 48.1875 
Q 26.21875 48.1875 22.15625 43.53125 
Q 18.109375 38.875 18.109375 30.90625 
L 18.109375 0 
L 9.078125 0 
L 9.078125 54.6875 
L 18.109375 54.6875 
L 18.109375 46.1875 
Q 21.1875 51.21875 25.484375 53.609375 
Q 29.78125 56 35.6875 56 
Q 41.65625 56 45.828125 52.96875 
Q 50 49.953125 52 44.1875 
z
" id="DejaVuSans-109"/>
       <path d="M 18.109375 8.203125 
L 18.109375 -20.796875 
L 9.078125 -20.796875 
L 9.078125 54.6875 
L 18.109375 54.6875 
L 18.109375 46.390625 
Q 20.953125 51.265625 25.265625 53.625 
Q 29.59375 56 35.59375 56 
Q 45.5625 56 51.78125 48.09375 
Q 58.015625 40.1875 58.015625 27.296875 
Q 58.015625 14.40625 51.78125 6.484375 
Q 45.5625 -1.421875 35.59375 -1.421875 
Q 29.59375 -1.421875 25.265625 0.953125 
Q 20.953125 3.328125 18.109375 8.203125 
z
M 48.6875 27.296875 
Q 48.6875 37.203125 44.609375 42.84375 
Q 40.53125 48.484375 33.40625 48.484375 
Q 26.265625 48.484375 22.1875 42.84375 
Q 18.109375 37.203125 18.109375 27.296875 
Q 18.109375 17.390625 22.1875 11.75 
Q 26.265625 6.109375 33.40625 6.109375 
Q 40.53125 6.109375 44.609375 11.75 
Q 48.6875 17.390625 48.6875 27.296875 
z
" id="DejaVuSans-112"/>
       <path d="M 9.421875 75.984375 
L 18.40625 75.984375 
L 18.40625 0 
L 9.421875 0 
z
" id="DejaVuSans-108"/>
       <path d="M 8.5 21.578125 
L 8.5 54.6875 
L 17.484375 54.6875 
L 17.484375 21.921875 
Q 17.484375 14.15625 20.5 10.265625 
Q 23.53125 6.390625 29.59375 6.390625 
Q 36.859375 6.390625 41.078125 11.03125 
Q 45.3125 15.671875 45.3125 23.6875 
L 45.3125 54.6875 
L 54.296875 54.6875 
L 54.296875 0 
L 45.3125 0 
L 45.3125 8.40625 
Q 42.046875 3.421875 37.71875 1 
Q 33.40625 -1.421875 27.6875 -1.421875 
Q 18.265625 -1.421875 13.375 4.4375 
Q 8.5 10.296875 8.5 21.578125 
z
M 31.109375 56 
z
" id="DejaVuSans-117"/>
       <path d="M 45.40625 46.390625 
L 45.40625 75.984375 
L 54.390625 75.984375 
L 54.390625 0 
L 45.40625 0 
L 45.40625 8.203125 
Q 42.578125 3.328125 38.25 0.953125 
Q 33.9375 -1.421875 27.875 -1.421875 
Q 17.96875 -1.421875 11.734375 6.484375 
Q 5.515625 14.40625 5.515625 27.296875 
Q 5.515625 40.1875 11.734375 48.09375 
Q 17.96875 56 27.875 56 
Q 33.9375 56 38.25 53.625 
Q 42.578125 51.265625 45.40625 46.390625 
z
M 14.796875 27.296875 
Q 14.796875 17.390625 18.875 11.75 
Q 22.953125 6.109375 30.078125 6.109375 
Q 37.203125 6.109375 41.296875 11.75 
Q 45.40625 17.390625 45.40625 27.296875 
Q 45.40625 37.203125 41.296875 42.84375 
Q 37.203125 48.484375 30.078125 48.484375 
Q 22.953125 48.484375 18.875 42.84375 
Q 14.796875 37.203125 14.796875 27.296875 
z
" id="DejaVuSans-100"/>
      </defs>
      <use xlink:href="#DejaVuSans-65"/>
      <use x="68.408203" xlink:href="#DejaVuSans-109"/>
      <use x="165.820312" xlink:href="#DejaVuSans-112"/>
      <use x="229.296875" xlink:href="#DejaVuSans-108"/>
      <use x="257.080078" xlink:href="#DejaVuSans-105"/>
      <use x="284.863281" xlink:href="#DejaVuSans-116"/>
      <use x="324.072266" xlink:href="#DejaVuSans-117"/>
      <use x="387.451172" xlink:href="#DejaVuSans-100"/>
      <use x="450.927734" xlink:href="#DejaVuSans-101"/>
     </g>
    </g>
   </g>
   <g id="line2d_27">
    <path clip-path="url(#p5ed60ba7b3)" d="M 74.080909 163.158993 
L 77.697254 157.52597 
L 81.3136 151.915177 
L 84.929945 146.348758 
L 88.54629 140.848682 
L 92.162635 135.436655 
L 95.778981 130.134034 
L 99.395326 124.961749 
L 103.011671 119.94021 
L 106.628017 115.089236 
L 110.244362 110.427971 
L 113.860707 105.974812 
L 117.477052 101.747333 
L 121.093398 97.762217 
L 124.709743 94.035192 
L 128.326088 90.580968 
L 131.942433 87.413176 
L 135.558779 84.544318 
L 139.175124 81.985716 
L 142.791469 79.747468 
L 146.407815 77.838407 
L 150.02416 76.266068 
L 153.640505 75.036655 
L 157.25685 74.155021 
L 160.873196 73.624645 
L 164.489541 73.44762 
L 168.105886 73.624645 
L 171.722231 74.155021 
L 175.338577 75.036655 
L 178.954922 76.266068 
L 182.571267 77.838407 
L 186.187612 79.747468 
L 189.803958 81.985716 
L 193.420303 84.544318 
L 197.036648 87.413176 
L 200.652994 90.580968 
L 204.269339 94.035192 
L 207.885684 97.762217 
L 211.502029 101.747333 
L 215.118375 105.974812 
L 218.73472 110.427971 
L 222.351065 115.089236 
L 225.96741 119.94021 
L 229.583756 124.961749 
L 233.200101 130.134034 
L 236.816446 135.436655 
L 240.432792 140.848682 
L 244.049137 146.348758 
L 247.665482 151.915177 
L 251.281827 157.52597 
L 254.898173 163.158993 
L 258.514518 168.792017 
L 262.130863 174.40281 
L 265.747208 179.969228 
L 269.363554 185.469305 
L 272.979899 190.881332 
L 276.596244 196.183952 
L 280.21259 201.356238 
L 283.828935 206.377777 
L 287.44528 211.228751 
L 291.061625 215.890015 
L 294.677971 220.343175 
L 298.294316 224.570654 
L 301.910661 228.55577 
L 305.527006 232.282794 
L 309.143352 235.737019 
L 312.759697 238.904811 
L 316.376042 241.773669 
L 319.992388 244.332271 
L 323.608733 246.570518 
L 327.225078 248.479579 
L 330.841423 250.051919 
L 334.457769 251.281331 
L 338.074114 252.162965 
L 341.690459 252.693341 
L 345.306804 252.870366 
L 348.92315 252.693341 
L 352.539495 252.162965 
L 356.15584 251.281331 
L 359.772185 250.051919 
L 363.388531 248.479579 
L 367.004876 246.570518 
L 370.621221 244.332271 
L 374.237567 241.773669 
L 377.853912 238.904811 
L 381.470257 235.737019 
L 385.086602 232.282794 
L 388.702948 228.55577 
L 392.319293 224.570654 
L 395.935638 220.343175 
L 399.551983 215.890015 
L 403.168329 211.228751 
L 406.784674 206.377777 
L 410.401019 201.356238 
L 414.017365 196.183952 
L 417.63371 190.881332 
L 421.250055 185.469305 
L 424.8664 179.969228 
L 428.482746 174.40281 
L 432.099091 168.792017 
" style="fill:none;stroke:#1f77b4;stroke-linecap:square;stroke-width:1.5;"/>
    <defs>
     <path d="M 0 1.5 
C 0.397805 1.5 0.77937 1.341951 1.06066 1.06066 
C 1.341951 0.77937 1.5 0.397805 1.5 0 
C 1.5 -0.397805 1.341951 -0.77937 1.06066 -1.06066 
C 0.77937 -1.341951 0.397805 -1.5 0 -1.5 
C -0.397805 -1.5 -0.77937 -1.341951 -1.06066 -1.06066 
C -1.341951 -0.77937 -1.5 -0.397805 -1.5 0 
C -1.5 0.397805 -1.341951 0.77937 -1.06066 1.06066 
C -0.77937 1.341951 -0.397805 1.5 0 1.5 
z
" id="mbacc523f58" style="stroke:#1f77b4;"/>
    </defs>
    <g clip-path="url(#p5ed60ba7b3)">
     <use style="fill:#1f77b4;stroke:#1f77b4;" x="74.080909" xlink:href="#mbacc523f58" y="163.158993"/>
     <use style="fill:#1f77b4;stroke:#1f77b4;" x="77.697254" xlink:href="#mbacc523f58" y="157.52597"/>
     <use style="fill:#1f77b4;stroke:#1f77b4;" x="81.3136" xlink:href="#mbacc523f58" y="151.915177"/>
     <use style="fill:#1f77b4;stroke:#1f77b4;" x="84.929945" xlink:href="#mbacc523f58" y="146.348758"/>
     <use style="fill:#1f77b4;stroke:#1f77b4;" x="88.54629" xlink:href="#mbacc523f58" y="140.848682"/>
     <use style="fill:#1f77b4;stroke:#1f77b4;" x="92.162635" xlink:href="#mbacc523f58" y="135.436655"/>
     <use style="fill:#1f77b4;stroke:#1f77b4;" x="95.778981" xlink:href="#mbacc523f58" y="130.134034"/>
     <use style="fill:#1f77b4;stroke:#1f77b4;" x="99.395326" xlink:href="#mbacc523f58" y="124.961749"/>
     <use style="fill:#1f77b4;stroke:#1f77b4;" x="103.011671" xlink:href="#mbacc523f58" y="119.94021"/>
     <use style="fill:#1f77b4;stroke:#1f77b4;" x="106.628017" xlink:href="#mbacc523f58" y="115.089236"/>
     <use style="fill:#1f77b4;stroke:#1f77b4;" x="110.244362" xlink:href="#mbacc523f58" y="110.427971"/>
     <use style="fill:#1f77b4;stroke:#1f77b4;" x="113.860707" xlink:href="#mbacc523f58" y="105.974812"/>
     <use style="fill:#1f77b4;stroke:#1f77b4;" x="117.477052" xlink:href="#mbacc523f58" y="101.747333"/>
     <use style="fill:#1f77b4;stroke:#1f77b4;" x="121.093398" xlink:href="#mbacc523f58" y="97.762217"/>
     <use style="fill:#1f77b4;stroke:#1f77b4;" x="124.709743" xlink:href="#mbacc523f58" y="94.035192"/>
     <use style="fill:#1f77b4;stroke:#1f77b4;" x="128.326088" xlink:href="#mbacc523f58" y="90.580968"/>
     <use style="fill:#1f77b4;stroke:#1f77b4;" x="131.942433" xlink:href="#mbacc523f58" y="87.413176"/>
     <use style="fill:#1f77b4;stroke:#1f77b4;" x="135.558779" xlink:href="#mbacc523f58" y="84.544318"/>
     <use style="fill:#1f77b4;stroke:#1f77b4;" x="139.175124" xlink:href="#mbacc523f58" y="81.985716"/>
     <use style="fill:#1f77b4;stroke:#1f77b4;" x="142.791469" xlink:href="#mbacc523f58" y="79.747468"/>
     <use style="fill:#1f77b4;stroke:#1f77b4;" x="146.407815" xlink:href="#mbacc523f58" y="77.838407"/>
     <use style="fill:#1f77b4;stroke:#1f77b4;" x="150.02416" xlink:href="#mbacc523f58" y="76.266068"/>
     <use style="fill:#1f77b4;stroke:#1f77b4;" x="153.640505" xlink:href="#mbacc523f58" y="75.036655"/>
     <use style="fill:#1f77b4;stroke:#1f77b4;" x="157.25685" xlink:href="#mbacc523f58" y="74.155021"/>
     <use style="fill:#1f77b4;stroke:#1f77b4;" x="160.873196" xlink:href="#mbacc523f58" y="73.624645"/>
     <use style="fill:#1f77b4;stroke:#1f77b4;" x="164.489541" xlink:href="#mbacc523f58" y="73.44762"/>
     <use style="fill:#1f77b4;stroke:#1f77b4;" x="168.105886" xlink:href="#mbacc523f58" y="73.624645"/>
     <use style="fill:#1f77b4;stroke:#1f77b4;" x="171.722231" xlink:href="#mbacc523f58" y="74.155021"/>
     <use style="fill:#1f77b4;stroke:#1f77b4;" x="175.338577" xlink:href="#mbacc523f58" y="75.036655"/>
     <use style="fill:#1f77b4;stroke:#1f77b4;" x="178.954922" xlink:href="#mbacc523f58" y="76.266068"/>
     <use style="fill:#1f77b4;stroke:#1f77b4;" x="182.571267" xlink:href="#mbacc523f58" y="77.838407"/>
     <use style="fill:#1f77b4;stroke:#1f77b4;" x="186.187612" xlink:href="#mbacc523f58" y="79.747468"/>
     <use style="fill:#1f77b4;stroke:#1f77b4;" x="189.803958" xlink:href="#mbacc523f58" y="81.985716"/>
     <use style="fill:#1f77b4;stroke:#1f77b4;" x="193.420303" xlink:href="#mbacc523f58" y="84.544318"/>
     <use style="fill:#1f77b4;stroke:#1f77b4;" x="197.036648" xlink:href="#mbacc523f58" y="87.413176"/>
     <use style="fill:#1f77b4;stroke:#1f77b4;" x="200.652994" xlink:href="#mbacc523f58" y="90.580968"/>
     <use style="fill:#1f77b4;stroke:#1f77b4;" x="204.269339" xlink:href="#mbacc523f58" y="94.035192"/>
     <use style="fill:#1f77b4;stroke:#1f77b4;" x="207.885684" xlink:href="#mbacc523f58" y="97.762217"/>
     <use style="fill:#1f77b4;stroke:#1f77b4;" x="211.502029" xlink:href="#mbacc523f58" y="101.747333"/>
     <use style="fill:#1f77b4;stroke:#1f77b4;" x="215.118375" xlink:href="#mbacc523f58" y="105.974812"/>
     <use style="fill:#1f77b4;stroke:#1f77b4;" x="218.73472" xlink:href="#mbacc523f58" y="110.427971"/>
     <use style="fill:#1f77b4;stroke:#1f77b4;" x="222.351065" xlink:href="#mbacc523f58" y="115.089236"/>
     <use style="fill:#1f77b4;stroke:#1f77b4;" x="225.96741" xlink:href="#mbacc523f58" y="119.94021"/>
     <use style="fill:#1f77b4;stroke:#1f77b4;" x="229.583756" xlink:href="#mbacc523f58" y="124.961749"/>
     <use style="fill:#1f77b4;stroke:#1f77b4;" x="233.200101" xlink:href="#mbacc523f58" y="130.134034"/>
     <use style="fill:#1f77b4;stroke:#1f77b4;" x="236.816446" xlink:href="#mbacc523f58" y="135.436655"/>
     <use style="fill:#1f77b4;stroke:#1f77b4;" x="240.432792" xlink:href="#mbacc523f58" y="140.848682"/>
     <use style="fill:#1f77b4;stroke:#1f77b4;" x="244.049137" xlink:href="#mbacc523f58" y="146.348758"/>
     <use style="fill:#1f77b4;stroke:#1f77b4;" x="247.665482" xlink:href="#mbacc523f58" y="151.915177"/>
     <use style="fill:#1f77b4;stroke:#1f77b4;" x="251.281827" xlink:href="#mbacc523f58" y="157.52597"/>
     <use style="fill:#1f77b4;stroke:#1f77b4;" x="254.898173" xlink:href="#mbacc523f58" y="163.158993"/>
     <use style="fill:#1f77b4;stroke:#1f77b4;" x="258.514518" xlink:href="#mbacc523f58" y="168.792017"/>
     <use style="fill:#1f77b4;stroke:#1f77b4;" x="262.130863" xlink:href="#mbacc523f58" y="174.40281"/>
     <use style="fill:#1f77b4;stroke:#1f77b4;" x="265.747208" xlink:href="#mbacc523f58" y="179.969228"/>
     <use style="fill:#1f77b4;stroke:#1f77b4;" x="269.363554" xlink:href="#mbacc523f58" y="185.469305"/>
     <use style="fill:#1f77b4;stroke:#1f77b4;" x="272.979899" xlink:href="#mbacc523f58" y="190.881332"/>
     <use style="fill:#1f77b4;stroke:#1f77b4;" x="276.596244" xlink:href="#mbacc523f58" y="196.183952"/>
     <use style="fill:#1f77b4;stroke:#1f77b4;" x="280.21259" xlink:href="#mbacc523f58" y="201.356238"/>
     <use style="fill:#1f77b4;stroke:#1f77b4;" x="283.828935" xlink:href="#mbacc523f58" y="206.377777"/>
     <use style="fill:#1f77b4;stroke:#1f77b4;" x="287.44528" xlink:href="#mbacc523f58" y="211.228751"/>
     <use style="fill:#1f77b4;stroke:#1f77b4;" x="291.061625" xlink:href="#mbacc523f58" y="215.890015"/>
     <use style="fill:#1f77b4;stroke:#1f77b4;" x="294.677971" xlink:href="#mbacc523f58" y="220.343175"/>
     <use style="fill:#1f77b4;stroke:#1f77b4;" x="298.294316" xlink:href="#mbacc523f58" y="224.570654"/>
     <use style="fill:#1f77b4;stroke:#1f77b4;" x="301.910661" xlink:href="#mbacc523f58" y="228.55577"/>
     <use style="fill:#1f77b4;stroke:#1f77b4;" x="305.527006" xlink:href="#mbacc523f58" y="232.282794"/>
     <use style="fill:#1f77b4;stroke:#1f77b4;" x="309.143352" xlink:href="#mbacc523f58" y="235.737019"/>
     <use style="fill:#1f77b4;stroke:#1f77b4;" x="312.759697" xlink:href="#mbacc523f58" y="238.904811"/>
     <use style="fill:#1f77b4;stroke:#1f77b4;" x="316.376042" xlink:href="#mbacc523f58" y="241.773669"/>
     <use style="fill:#1f77b4;stroke:#1f77b4;" x="319.992388" xlink:href="#mbacc523f58" y="244.332271"/>
     <use style="fill:#1f77b4;stroke:#1f77b4;" x="323.608733" xlink:href="#mbacc523f58" y="246.570518"/>
     <use style="fill:#1f77b4;stroke:#1f77b4;" x="327.225078" xlink:href="#mbacc523f58" y="248.479579"/>
     <use style="fill:#1f77b4;stroke:#1f77b4;" x="330.841423" xlink:href="#mbacc523f58" y="250.051919"/>
     <use style="fill:#1f77b4;stroke:#1f77b4;" x="334.457769" xlink:href="#mbacc523f58" y="251.281331"/>
     <use style="fill:#1f77b4;stroke:#1f77b4;" x="338.074114" xlink:href="#mbacc523f58" y="252.162965"/>
     <use style="fill:#1f77b4;stroke:#1f77b4;" x="341.690459" xlink:href="#mbacc523f58" y="252.693341"/>
     <use style="fill:#1f77b4;stroke:#1f77b4;" x="345.306804" xlink:href="#mbacc523f58" y="252.870366"/>
     <use style="fill:#1f77b4;stroke:#1f77b4;" x="348.92315" xlink:href="#mbacc523f58" y="252.693341"/>
     <use style="fill:#1f77b4;stroke:#1f77b4;" x="352.539495" xlink:href="#mbacc523f58" y="252.162965"/>
     <use style="fill:#1f77b4;stroke:#1f77b4;" x="356.15584" xlink:href="#mbacc523f58" y="251.281331"/>
     <use style="fill:#1f77b4;stroke:#1f77b4;" x="359.772185" xlink:href="#mbacc523f58" y="250.051919"/>
     <use style="fill:#1f77b4;stroke:#1f77b4;" x="363.388531" xlink:href="#mbacc523f58" y="248.479579"/>
     <use style="fill:#1f77b4;stroke:#1f77b4;" x="367.004876" xlink:href="#mbacc523f58" y="246.570518"/>
     <use style="fill:#1f77b4;stroke:#1f77b4;" x="370.621221" xlink:href="#mbacc523f58" y="244.332271"/>
     <use style="fill:#1f77b4;stroke:#1f77b4;" x="374.237567" xlink:href="#mbacc523f58" y="241.773669"/>
     <use style="fill:#1f77b4;stroke:#1f77b4;" x="377.853912" xlink:href="#mbacc523f58" y="238.904811"/>
     <use style="fill:#1f77b4;stroke:#1f77b4;" x="381.470257" xlink:href="#mbacc523f58" y="235.737019"/>
     <use style="fill:#1f77b4;stroke:#1f77b4;" x="385.086602" xlink:href="#mbacc523f58" y="232.282794"/>
     <use style="fill:#1f77b4;stroke:#1f77b4;" x="388.702948" xlink:href="#mbacc523f58" y="228.55577"/>
     <use style="fill:#1f77b4;stroke:#1f77b4;" x="392.319293" xlink:href="#mbacc523f58" y="224.570654"/>
     <use style="fill:#1f77b4;stroke:#1f77b4;" x="395.935638" xlink:href="#mbacc523f58" y="220.343175"/>
     <use style="fill:#1f77b4;stroke:#1f77b4;" x="399.551983" xlink:href="#mbacc523f58" y="215.890015"/>
     <use style="fill:#1f77b4;stroke:#1f77b4;" x="403.168329" xlink:href="#mbacc523f58" y="211.228751"/>
     <use style="fill:#1f77b4;stroke:#1f77b4;" x="406.784674" xlink:href="#mbacc523f58" y="206.377777"/>
     <use style="fill:#1f77b4;stroke:#1f77b4;" x="410.401019" xlink:href="#mbacc523f58" y="201.356238"/>
     <use style="fill:#1f77b4;stroke:#1f77b4;" x="414.017365" xlink:href="#mbacc523f58" y="196.183952"/>
     <use style="fill:#1f77b4;stroke:#1f77b4;" x="417.63371" xlink:href="#mbacc523f58" y="190.881332"/>
     <use style="fill:#1f77b4;stroke:#1f77b4;" x="421.250055" xlink:href="#mbacc523f58" y="185.469305"/>
     <use style="fill:#1f77b4;stroke:#1f77b4;" x="424.8664" xlink:href="#mbacc523f58" y="179.969228"/>
     <use style="fill:#1f77b4;stroke:#1f77b4;" x="428.482746" xlink:href="#mbacc523f58" y="174.40281"/>
     <use style="fill:#1f77b4;stroke:#1f77b4;" x="432.099091" xlink:href="#mbacc523f58" y="168.792017"/>
    </g>
   </g>
   <g id="line2d_28">
    <path clip-path="url(#p5ed60ba7b3)" d="M 74.080909 166.571129 
L 77.697254 162.107718 
L 81.3136 178.618452 
L 84.929945 181.401711 
L 88.54629 130.217995 
L 92.162635 137.157331 
L 95.778981 165.874286 
L 99.395326 136.08733 
L 103.011671 126.345867 
L 106.628017 161.338281 
L 110.244362 118.526255 
L 113.860707 161.955304 
L 117.477052 91.374735 
L 121.093398 92.266184 
L 124.709743 88.919056 
L 128.326088 116.640883 
L 131.942433 104.685385 
L 135.558779 55.470597 
L 139.175124 66.419435 
L 142.791469 62.671161 
L 146.407815 72.545165 
L 150.02416 69.846727 
L 153.640505 24.110909 
L 157.25685 59.450562 
L 160.873196 43.955739 
L 164.489541 55.166685 
L 168.105886 95.086968 
L 171.722231 73.655967 
L 175.338577 80.999954 
L 178.954922 50.631428 
L 182.571267 84.781869 
L 186.187612 96.443039 
L 189.803958 101.363706 
L 193.420303 76.320179 
L 197.036648 39.790394 
L 200.652994 132.984382 
L 204.269339 87.323215 
L 207.885684 105.401541 
L 211.502029 110.385117 
L 215.118375 110.114836 
L 218.73472 119.976314 
L 222.351065 145.534362 
L 225.96741 136.10965 
L 229.583756 109.712901 
L 233.200101 139.34524 
L 236.816446 130.427082 
L 240.432792 149.394404 
L 244.049137 147.731774 
L 247.665482 134.224452 
L 251.281827 149.156409 
L 254.898173 147.749077 
L 258.514518 168.0493 
L 262.130863 166.67061 
L 265.747208 173.20111 
L 269.363554 191.438557 
L 272.979899 179.156472 
L 276.596244 221.520518 
L 280.21259 232.151861 
L 283.828935 211.23313 
L 287.44528 203.25214 
L 291.061625 178.880323 
L 294.677971 279.374041 
L 298.294316 195.453691 
L 301.910661 284.360677 
L 305.527006 269.236411 
L 309.143352 201.251719 
L 312.759697 238.164781 
L 316.376042 240.323931 
L 319.992388 221.942377 
L 323.608733 282.001825 
L 327.225078 236.985431 
L 330.841423 223.278396 
L 334.457769 272.140869 
L 338.074114 289.511419 
L 341.690459 236.74718 
L 345.306804 212.216046 
L 348.92315 246.284694 
L 352.539495 290.329091 
L 356.15584 236.4245 
L 359.772185 248.040257 
L 363.388531 250.322981 
L 367.004876 262.514434 
L 370.621221 192.882973 
L 374.237567 264.522797 
L 377.853912 254.629527 
L 381.470257 219.886866 
L 385.086602 210.242815 
L 388.702948 188.305822 
L 392.319293 244.470211 
L 395.935638 220.401555 
L 399.551983 272.832504 
L 403.168329 187.698968 
L 406.784674 242.98628 
L 410.401019 209.948335 
L 414.017365 151.070763 
L 417.63371 172.54763 
L 421.250055 191.52602 
L 424.8664 185.816828 
L 428.482746 165.182232 
L 432.099091 180.814847 
" style="fill:none;stroke:#ff7f0e;stroke-linecap:square;stroke-width:1.5;"/>
    <defs>
     <path d="M 0 1.5 
C 0.397805 1.5 0.77937 1.341951 1.06066 1.06066 
C 1.341951 0.77937 1.5 0.397805 1.5 0 
C 1.5 -0.397805 1.341951 -0.77937 1.06066 -1.06066 
C 0.77937 -1.341951 0.397805 -1.5 0 -1.5 
C -0.397805 -1.5 -0.77937 -1.341951 -1.06066 -1.06066 
C -1.341951 -0.77937 -1.5 -0.397805 -1.5 0 
C -1.5 0.397805 -1.341951 0.77937 -1.06066 1.06066 
C -0.77937 1.341951 -0.397805 1.5 0 1.5 
z
" id="m10fe419c25" style="stroke:#ff7f0e;"/>
    </defs>
    <g clip-path="url(#p5ed60ba7b3)">
     <use style="fill:#ff7f0e;stroke:#ff7f0e;" x="74.080909" xlink:href="#m10fe419c25" y="166.571129"/>
     <use style="fill:#ff7f0e;stroke:#ff7f0e;" x="77.697254" xlink:href="#m10fe419c25" y="162.107718"/>
     <use style="fill:#ff7f0e;stroke:#ff7f0e;" x="81.3136" xlink:href="#m10fe419c25" y="178.618452"/>
     <use style="fill:#ff7f0e;stroke:#ff7f0e;" x="84.929945" xlink:href="#m10fe419c25" y="181.401711"/>
     <use style="fill:#ff7f0e;stroke:#ff7f0e;" x="88.54629" xlink:href="#m10fe419c25" y="130.217995"/>
     <use style="fill:#ff7f0e;stroke:#ff7f0e;" x="92.162635" xlink:href="#m10fe419c25" y="137.157331"/>
     <use style="fill:#ff7f0e;stroke:#ff7f0e;" x="95.778981" xlink:href="#m10fe419c25" y="165.874286"/>
     <use style="fill:#ff7f0e;stroke:#ff7f0e;" x="99.395326" xlink:href="#m10fe419c25" y="136.08733"/>
     <use style="fill:#ff7f0e;stroke:#ff7f0e;" x="103.011671" xlink:href="#m10fe419c25" y="126.345867"/>
     <use style="fill:#ff7f0e;stroke:#ff7f0e;" x="106.628017" xlink:href="#m10fe419c25" y="161.338281"/>
     <use style="fill:#ff7f0e;stroke:#ff7f0e;" x="110.244362" xlink:href="#m10fe419c25" y="118.526255"/>
     <use style="fill:#ff7f0e;stroke:#ff7f0e;" x="113.860707" xlink:href="#m10fe419c25" y="161.955304"/>
     <use style="fill:#ff7f0e;stroke:#ff7f0e;" x="117.477052" xlink:href="#m10fe419c25" y="91.374735"/>
     <use style="fill:#ff7f0e;stroke:#ff7f0e;" x="121.093398" xlink:href="#m10fe419c25" y="92.266184"/>
     <use style="fill:#ff7f0e;stroke:#ff7f0e;" x="124.709743" xlink:href="#m10fe419c25" y="88.919056"/>
     <use style="fill:#ff7f0e;stroke:#ff7f0e;" x="128.326088" xlink:href="#m10fe419c25" y="116.640883"/>
     <use style="fill:#ff7f0e;stroke:#ff7f0e;" x="131.942433" xlink:href="#m10fe419c25" y="104.685385"/>
     <use style="fill:#ff7f0e;stroke:#ff7f0e;" x="135.558779" xlink:href="#m10fe419c25" y="55.470597"/>
     <use style="fill:#ff7f0e;stroke:#ff7f0e;" x="139.175124" xlink:href="#m10fe419c25" y="66.419435"/>
     <use style="fill:#ff7f0e;stroke:#ff7f0e;" x="142.791469" xlink:href="#m10fe419c25" y="62.671161"/>
     <use style="fill:#ff7f0e;stroke:#ff7f0e;" x="146.407815" xlink:href="#m10fe419c25" y="72.545165"/>
     <use style="fill:#ff7f0e;stroke:#ff7f0e;" x="150.02416" xlink:href="#m10fe419c25" y="69.846727"/>
     <use style="fill:#ff7f0e;stroke:#ff7f0e;" x="153.640505" xlink:href="#m10fe419c25" y="24.110909"/>
     <use style="fill:#ff7f0e;stroke:#ff7f0e;" x="157.25685" xlink:href="#m10fe419c25" y="59.450562"/>
     <use style="fill:#ff7f0e;stroke:#ff7f0e;" x="160.873196" xlink:href="#m10fe419c25" y="43.955739"/>
     <use style="fill:#ff7f0e;stroke:#ff7f0e;" x="164.489541" xlink:href="#m10fe419c25" y="55.166685"/>
     <use style="fill:#ff7f0e;stroke:#ff7f0e;" x="168.105886" xlink:href="#m10fe419c25" y="95.086968"/>
     <use style="fill:#ff7f0e;stroke:#ff7f0e;" x="171.722231" xlink:href="#m10fe419c25" y="73.655967"/>
     <use style="fill:#ff7f0e;stroke:#ff7f0e;" x="175.338577" xlink:href="#m10fe419c25" y="80.999954"/>
     <use style="fill:#ff7f0e;stroke:#ff7f0e;" x="178.954922" xlink:href="#m10fe419c25" y="50.631428"/>
     <use style="fill:#ff7f0e;stroke:#ff7f0e;" x="182.571267" xlink:href="#m10fe419c25" y="84.781869"/>
     <use style="fill:#ff7f0e;stroke:#ff7f0e;" x="186.187612" xlink:href="#m10fe419c25" y="96.443039"/>
     <use style="fill:#ff7f0e;stroke:#ff7f0e;" x="189.803958" xlink:href="#m10fe419c25" y="101.363706"/>
     <use style="fill:#ff7f0e;stroke:#ff7f0e;" x="193.420303" xlink:href="#m10fe419c25" y="76.320179"/>
     <use style="fill:#ff7f0e;stroke:#ff7f0e;" x="197.036648" xlink:href="#m10fe419c25" y="39.790394"/>
     <use style="fill:#ff7f0e;stroke:#ff7f0e;" x="200.652994" xlink:href="#m10fe419c25" y="132.984382"/>
     <use style="fill:#ff7f0e;stroke:#ff7f0e;" x="204.269339" xlink:href="#m10fe419c25" y="87.323215"/>
     <use style="fill:#ff7f0e;stroke:#ff7f0e;" x="207.885684" xlink:href="#m10fe419c25" y="105.401541"/>
     <use style="fill:#ff7f0e;stroke:#ff7f0e;" x="211.502029" xlink:href="#m10fe419c25" y="110.385117"/>
     <use style="fill:#ff7f0e;stroke:#ff7f0e;" x="215.118375" xlink:href="#m10fe419c25" y="110.114836"/>
     <use style="fill:#ff7f0e;stroke:#ff7f0e;" x="218.73472" xlink:href="#m10fe419c25" y="119.976314"/>
     <use style="fill:#ff7f0e;stroke:#ff7f0e;" x="222.351065" xlink:href="#m10fe419c25" y="145.534362"/>
     <use style="fill:#ff7f0e;stroke:#ff7f0e;" x="225.96741" xlink:href="#m10fe419c25" y="136.10965"/>
     <use style="fill:#ff7f0e;stroke:#ff7f0e;" x="229.583756" xlink:href="#m10fe419c25" y="109.712901"/>
     <use style="fill:#ff7f0e;stroke:#ff7f0e;" x="233.200101" xlink:href="#m10fe419c25" y="139.34524"/>
     <use style="fill:#ff7f0e;stroke:#ff7f0e;" x="236.816446" xlink:href="#m10fe419c25" y="130.427082"/>
     <use style="fill:#ff7f0e;stroke:#ff7f0e;" x="240.432792" xlink:href="#m10fe419c25" y="149.394404"/>
     <use style="fill:#ff7f0e;stroke:#ff7f0e;" x="244.049137" xlink:href="#m10fe419c25" y="147.731774"/>
     <use style="fill:#ff7f0e;stroke:#ff7f0e;" x="247.665482" xlink:href="#m10fe419c25" y="134.224452"/>
     <use style="fill:#ff7f0e;stroke:#ff7f0e;" x="251.281827" xlink:href="#m10fe419c25" y="149.156409"/>
     <use style="fill:#ff7f0e;stroke:#ff7f0e;" x="254.898173" xlink:href="#m10fe419c25" y="147.749077"/>
     <use style="fill:#ff7f0e;stroke:#ff7f0e;" x="258.514518" xlink:href="#m10fe419c25" y="168.0493"/>
     <use style="fill:#ff7f0e;stroke:#ff7f0e;" x="262.130863" xlink:href="#m10fe419c25" y="166.67061"/>
     <use style="fill:#ff7f0e;stroke:#ff7f0e;" x="265.747208" xlink:href="#m10fe419c25" y="173.20111"/>
     <use style="fill:#ff7f0e;stroke:#ff7f0e;" x="269.363554" xlink:href="#m10fe419c25" y="191.438557"/>
     <use style="fill:#ff7f0e;stroke:#ff7f0e;" x="272.979899" xlink:href="#m10fe419c25" y="179.156472"/>
     <use style="fill:#ff7f0e;stroke:#ff7f0e;" x="276.596244" xlink:href="#m10fe419c25" y="221.520518"/>
     <use style="fill:#ff7f0e;stroke:#ff7f0e;" x="280.21259" xlink:href="#m10fe419c25" y="232.151861"/>
     <use style="fill:#ff7f0e;stroke:#ff7f0e;" x="283.828935" xlink:href="#m10fe419c25" y="211.23313"/>
     <use style="fill:#ff7f0e;stroke:#ff7f0e;" x="287.44528" xlink:href="#m10fe419c25" y="203.25214"/>
     <use style="fill:#ff7f0e;stroke:#ff7f0e;" x="291.061625" xlink:href="#m10fe419c25" y="178.880323"/>
     <use style="fill:#ff7f0e;stroke:#ff7f0e;" x="294.677971" xlink:href="#m10fe419c25" y="279.374041"/>
     <use style="fill:#ff7f0e;stroke:#ff7f0e;" x="298.294316" xlink:href="#m10fe419c25" y="195.453691"/>
     <use style="fill:#ff7f0e;stroke:#ff7f0e;" x="301.910661" xlink:href="#m10fe419c25" y="284.360677"/>
     <use style="fill:#ff7f0e;stroke:#ff7f0e;" x="305.527006" xlink:href="#m10fe419c25" y="269.236411"/>
     <use style="fill:#ff7f0e;stroke:#ff7f0e;" x="309.143352" xlink:href="#m10fe419c25" y="201.251719"/>
     <use style="fill:#ff7f0e;stroke:#ff7f0e;" x="312.759697" xlink:href="#m10fe419c25" y="238.164781"/>
     <use style="fill:#ff7f0e;stroke:#ff7f0e;" x="316.376042" xlink:href="#m10fe419c25" y="240.323931"/>
     <use style="fill:#ff7f0e;stroke:#ff7f0e;" x="319.992388" xlink:href="#m10fe419c25" y="221.942377"/>
     <use style="fill:#ff7f0e;stroke:#ff7f0e;" x="323.608733" xlink:href="#m10fe419c25" y="282.001825"/>
     <use style="fill:#ff7f0e;stroke:#ff7f0e;" x="327.225078" xlink:href="#m10fe419c25" y="236.985431"/>
     <use style="fill:#ff7f0e;stroke:#ff7f0e;" x="330.841423" xlink:href="#m10fe419c25" y="223.278396"/>
     <use style="fill:#ff7f0e;stroke:#ff7f0e;" x="334.457769" xlink:href="#m10fe419c25" y="272.140869"/>
     <use style="fill:#ff7f0e;stroke:#ff7f0e;" x="338.074114" xlink:href="#m10fe419c25" y="289.511419"/>
     <use style="fill:#ff7f0e;stroke:#ff7f0e;" x="341.690459" xlink:href="#m10fe419c25" y="236.74718"/>
     <use style="fill:#ff7f0e;stroke:#ff7f0e;" x="345.306804" xlink:href="#m10fe419c25" y="212.216046"/>
     <use style="fill:#ff7f0e;stroke:#ff7f0e;" x="348.92315" xlink:href="#m10fe419c25" y="246.284694"/>
     <use style="fill:#ff7f0e;stroke:#ff7f0e;" x="352.539495" xlink:href="#m10fe419c25" y="290.329091"/>
     <use style="fill:#ff7f0e;stroke:#ff7f0e;" x="356.15584" xlink:href="#m10fe419c25" y="236.4245"/>
     <use style="fill:#ff7f0e;stroke:#ff7f0e;" x="359.772185" xlink:href="#m10fe419c25" y="248.040257"/>
     <use style="fill:#ff7f0e;stroke:#ff7f0e;" x="363.388531" xlink:href="#m10fe419c25" y="250.322981"/>
     <use style="fill:#ff7f0e;stroke:#ff7f0e;" x="367.004876" xlink:href="#m10fe419c25" y="262.514434"/>
     <use style="fill:#ff7f0e;stroke:#ff7f0e;" x="370.621221" xlink:href="#m10fe419c25" y="192.882973"/>
     <use style="fill:#ff7f0e;stroke:#ff7f0e;" x="374.237567" xlink:href="#m10fe419c25" y="264.522797"/>
     <use style="fill:#ff7f0e;stroke:#ff7f0e;" x="377.853912" xlink:href="#m10fe419c25" y="254.629527"/>
     <use style="fill:#ff7f0e;stroke:#ff7f0e;" x="381.470257" xlink:href="#m10fe419c25" y="219.886866"/>
     <use style="fill:#ff7f0e;stroke:#ff7f0e;" x="385.086602" xlink:href="#m10fe419c25" y="210.242815"/>
     <use style="fill:#ff7f0e;stroke:#ff7f0e;" x="388.702948" xlink:href="#m10fe419c25" y="188.305822"/>
     <use style="fill:#ff7f0e;stroke:#ff7f0e;" x="392.319293" xlink:href="#m10fe419c25" y="244.470211"/>
     <use style="fill:#ff7f0e;stroke:#ff7f0e;" x="395.935638" xlink:href="#m10fe419c25" y="220.401555"/>
     <use style="fill:#ff7f0e;stroke:#ff7f0e;" x="399.551983" xlink:href="#m10fe419c25" y="272.832504"/>
     <use style="fill:#ff7f0e;stroke:#ff7f0e;" x="403.168329" xlink:href="#m10fe419c25" y="187.698968"/>
     <use style="fill:#ff7f0e;stroke:#ff7f0e;" x="406.784674" xlink:href="#m10fe419c25" y="242.98628"/>
     <use style="fill:#ff7f0e;stroke:#ff7f0e;" x="410.401019" xlink:href="#m10fe419c25" y="209.948335"/>
     <use style="fill:#ff7f0e;stroke:#ff7f0e;" x="414.017365" xlink:href="#m10fe419c25" y="151.070763"/>
     <use style="fill:#ff7f0e;stroke:#ff7f0e;" x="417.63371" xlink:href="#m10fe419c25" y="172.54763"/>
     <use style="fill:#ff7f0e;stroke:#ff7f0e;" x="421.250055" xlink:href="#m10fe419c25" y="191.52602"/>
     <use style="fill:#ff7f0e;stroke:#ff7f0e;" x="424.8664" xlink:href="#m10fe419c25" y="185.816828"/>
     <use style="fill:#ff7f0e;stroke:#ff7f0e;" x="428.482746" xlink:href="#m10fe419c25" y="165.182232"/>
     <use style="fill:#ff7f0e;stroke:#ff7f0e;" x="432.099091" xlink:href="#m10fe419c25" y="180.814847"/>
    </g>
   </g>
   <g id="patch_3">
    <path d="M 56.18 303.64 
L 56.18 10.8 
" style="fill:none;stroke:#000000;stroke-linecap:square;stroke-linejoin:miter;stroke-width:0.8;"/>
   </g>
   <g id="patch_4">
    <path d="M 450 303.64 
L 450 10.8 
" style="fill:none;stroke:#000000;stroke-linecap:square;stroke-linejoin:miter;stroke-width:0.8;"/>
   </g>
   <g id="patch_5">
    <path d="M 56.18 303.64 
L 450 303.64 
" style="fill:none;stroke:#000000;stroke-linecap:square;stroke-linejoin:miter;stroke-width:0.8;"/>
   </g>
   <g id="patch_6">
    <path d="M 56.18 10.8 
L 450 10.8 
" style="fill:none;stroke:#000000;stroke-linecap:square;stroke-linejoin:miter;stroke-width:0.8;"/>
   </g>
   <g id="legend_1">
    <g id="patch_7">
     <path d="M 357.734375 48.15625 
L 443 48.15625 
Q 445 48.15625 445 46.15625 
L 445 17.8 
Q 445 15.8 443 15.8 
L 357.734375 15.8 
Q 355.734375 15.8 355.734375 17.8 
L 355.734375 46.15625 
Q 355.734375 48.15625 357.734375 48.15625 
z
" style="fill:#ffffff;opacity:0.8;stroke:#cccccc;stroke-linejoin:miter;"/>
    </g>
    <g id="line2d_29">
     <path d="M 359.734375 23.898438 
L 379.734375 23.898438 
" style="fill:none;stroke:#1f77b4;stroke-linecap:square;stroke-width:1.5;"/>
    </g>
    <g id="line2d_30">
     <g>
      <use style="fill:#1f77b4;stroke:#1f77b4;" x="369.734375" xlink:href="#mbacc523f58" y="23.898438"/>
     </g>
    </g>
    <g id="text_16">
     <!-- Simulation -->
     <g transform="translate(387.734375 27.398438)scale(0.1 -0.1)">
      <defs>
       <path d="M 53.515625 70.515625 
L 53.515625 60.890625 
Q 47.90625 63.578125 42.921875 64.890625 
Q 37.9375 66.21875 33.296875 66.21875 
Q 25.25 66.21875 20.875 63.09375 
Q 16.5 59.96875 16.5 54.203125 
Q 16.5 49.359375 19.40625 46.890625 
Q 22.3125 44.4375 30.421875 42.921875 
L 36.375 41.703125 
Q 47.40625 39.59375 52.65625 34.296875 
Q 57.90625 29 57.90625 20.125 
Q 57.90625 9.515625 50.796875 4.046875 
Q 43.703125 -1.421875 29.984375 -1.421875 
Q 24.8125 -1.421875 18.96875 -0.25 
Q 13.140625 0.921875 6.890625 3.21875 
L 6.890625 13.375 
Q 12.890625 10.015625 18.65625 8.296875 
Q 24.421875 6.59375 29.984375 6.59375 
Q 38.421875 6.59375 43.015625 9.90625 
Q 47.609375 13.234375 47.609375 19.390625 
Q 47.609375 24.75 44.3125 27.78125 
Q 41.015625 30.8125 33.5 32.328125 
L 27.484375 33.5 
Q 16.453125 35.6875 11.515625 40.375 
Q 6.59375 45.0625 6.59375 53.421875 
Q 6.59375 63.09375 13.40625 68.65625 
Q 20.21875 74.21875 32.171875 74.21875 
Q 37.3125 74.21875 42.625 73.28125 
Q 47.953125 72.359375 53.515625 70.515625 
z
" id="DejaVuSans-83"/>
       <path d="M 34.28125 27.484375 
Q 23.390625 27.484375 19.1875 25 
Q 14.984375 22.515625 14.984375 16.5 
Q 14.984375 11.71875 18.140625 8.90625 
Q 21.296875 6.109375 26.703125 6.109375 
Q 34.1875 6.109375 38.703125 11.40625 
Q 43.21875 16.703125 43.21875 25.484375 
L 43.21875 27.484375 
z
M 52.203125 31.203125 
L 52.203125 0 
L 43.21875 0 
L 43.21875 8.296875 
Q 40.140625 3.328125 35.546875 0.953125 
Q 30.953125 -1.421875 24.3125 -1.421875 
Q 15.921875 -1.421875 10.953125 3.296875 
Q 6 8.015625 6 15.921875 
Q 6 25.140625 12.171875 29.828125 
Q 18.359375 34.515625 30.609375 34.515625 
L 43.21875 34.515625 
L 43.21875 35.40625 
Q 43.21875 41.609375 39.140625 45 
Q 35.0625 48.390625 27.6875 48.390625 
Q 23 48.390625 18.546875 47.265625 
Q 14.109375 46.140625 10.015625 43.890625 
L 10.015625 52.203125 
Q 14.9375 54.109375 19.578125 55.046875 
Q 24.21875 56 28.609375 56 
Q 40.484375 56 46.34375 49.84375 
Q 52.203125 43.703125 52.203125 31.203125 
z
" id="DejaVuSans-97"/>
       <path d="M 30.609375 48.390625 
Q 23.390625 48.390625 19.1875 42.75 
Q 14.984375 37.109375 14.984375 27.296875 
Q 14.984375 17.484375 19.15625 11.84375 
Q 23.34375 6.203125 30.609375 6.203125 
Q 37.796875 6.203125 41.984375 11.859375 
Q 46.1875 17.53125 46.1875 27.296875 
Q 46.1875 37.015625 41.984375 42.703125 
Q 37.796875 48.390625 30.609375 48.390625 
z
M 30.609375 56 
Q 42.328125 56 49.015625 48.375 
Q 55.71875 40.765625 55.71875 27.296875 
Q 55.71875 13.875 49.015625 6.21875 
Q 42.328125 -1.421875 30.609375 -1.421875 
Q 18.84375 -1.421875 12.171875 6.21875 
Q 5.515625 13.875 5.515625 27.296875 
Q 5.515625 40.765625 12.171875 48.375 
Q 18.84375 56 30.609375 56 
z
" id="DejaVuSans-111"/>
       <path d="M 54.890625 33.015625 
L 54.890625 0 
L 45.90625 0 
L 45.90625 32.71875 
Q 45.90625 40.484375 42.875 44.328125 
Q 39.84375 48.1875 33.796875 48.1875 
Q 26.515625 48.1875 22.3125 43.546875 
Q 18.109375 38.921875 18.109375 30.90625 
L 18.109375 0 
L 9.078125 0 
L 9.078125 54.6875 
L 18.109375 54.6875 
L 18.109375 46.1875 
Q 21.34375 51.125 25.703125 53.5625 
Q 30.078125 56 35.796875 56 
Q 45.21875 56 50.046875 50.171875 
Q 54.890625 44.34375 54.890625 33.015625 
z
" id="DejaVuSans-110"/>
      </defs>
      <use xlink:href="#DejaVuSans-83"/>
      <use x="63.476562" xlink:href="#DejaVuSans-105"/>
      <use x="91.259766" xlink:href="#DejaVuSans-109"/>
      <use x="188.671875" xlink:href="#DejaVuSans-117"/>
      <use x="252.050781" xlink:href="#DejaVuSans-108"/>
      <use x="279.833984" xlink:href="#DejaVuSans-97"/>
      <use x="341.113281" xlink:href="#DejaVuSans-116"/>
      <use x="380.322266" xlink:href="#DejaVuSans-105"/>
      <use x="408.105469" xlink:href="#DejaVuSans-111"/>
      <use x="469.287109" xlink:href="#DejaVuSans-110"/>
     </g>
    </g>
    <g id="line2d_31">
     <path d="M 359.734375 38.576563 
L 379.734375 38.576563 
" style="fill:none;stroke:#ff7f0e;stroke-linecap:square;stroke-width:1.5;"/>
    </g>
    <g id="line2d_32">
     <g>
      <use style="fill:#ff7f0e;stroke:#ff7f0e;" x="369.734375" xlink:href="#m10fe419c25" y="38.576563"/>
     </g>
    </g>
    <g id="text_17">
     <!-- Messung -->
     <g transform="translate(387.734375 42.076563)scale(0.1 -0.1)">
      <defs>
       <path d="M 9.8125 72.90625 
L 24.515625 72.90625 
L 43.109375 23.296875 
L 61.8125 72.90625 
L 76.515625 72.90625 
L 76.515625 0 
L 66.890625 0 
L 66.890625 64.015625 
L 48.09375 14.015625 
L 38.1875 14.015625 
L 19.390625 64.015625 
L 19.390625 0 
L 9.8125 0 
z
" id="DejaVuSans-77"/>
       <path d="M 45.40625 27.984375 
Q 45.40625 37.75 41.375 43.109375 
Q 37.359375 48.484375 30.078125 48.484375 
Q 22.859375 48.484375 18.828125 43.109375 
Q 14.796875 37.75 14.796875 27.984375 
Q 14.796875 18.265625 18.828125 12.890625 
Q 22.859375 7.515625 30.078125 7.515625 
Q 37.359375 7.515625 41.375 12.890625 
Q 45.40625 18.265625 45.40625 27.984375 
z
M 54.390625 6.78125 
Q 54.390625 -7.171875 48.1875 -13.984375 
Q 42 -20.796875 29.203125 -20.796875 
Q 24.46875 -20.796875 20.265625 -20.09375 
Q 16.0625 -19.390625 12.109375 -17.921875 
L 12.109375 -9.1875 
Q 16.0625 -11.328125 19.921875 -12.34375 
Q 23.78125 -13.375 27.78125 -13.375 
Q 36.625 -13.375 41.015625 -8.765625 
Q 45.40625 -4.15625 45.40625 5.171875 
L 45.40625 9.625 
Q 42.625 4.78125 38.28125 2.390625 
Q 33.9375 0 27.875 0 
Q 17.828125 0 11.671875 7.65625 
Q 5.515625 15.328125 5.515625 27.984375 
Q 5.515625 40.671875 11.671875 48.328125 
Q 17.828125 56 27.875 56 
Q 33.9375 56 38.28125 53.609375 
Q 42.625 51.21875 45.40625 46.390625 
L 45.40625 54.6875 
L 54.390625 54.6875 
z
" id="DejaVuSans-103"/>
      </defs>
      <use xlink:href="#DejaVuSans-77"/>
      <use x="86.279297" xlink:href="#DejaVuSans-101"/>
      <use x="147.802734" xlink:href="#DejaVuSans-115"/>
      <use x="199.902344" xlink:href="#DejaVuSans-115"/>
      <use x="252.001953" xlink:href="#DejaVuSans-117"/>
      <use x="315.380859" xlink:href="#DejaVuSans-110"/>
      <use x="378.759766" xlink:href="#DejaVuSans-103"/>
     </g>
    </g>
   </g>
  </g>
 </g>
 <defs>
  <clipPath id="p5ed60ba7b3">
   <rect height="292.84" width="393.82" x="56.18" y="10.8"/>
  </clipPath>
 </defs>
</svg>
